<mxfile host="Electron" modified="2023-08-29T00:31:19.957Z" agent="Mozilla/5.0 (Windows NT 10.0; Win64; x64) AppleWebKit/537.36 (KHTML, like Gecko) draw.io/21.6.5 Chrome/114.0.5735.243 Electron/25.3.1 Safari/537.36" etag="kFUL0fSJRwwbr_N3QtdO" version="21.6.5" type="device">
  <diagram id="C5RBs43oDa-KdzZeNtuy" name="Page-1">
    <mxGraphModel dx="1927" dy="847" grid="1" gridSize="10" guides="1" tooltips="1" connect="1" arrows="1" fold="1" page="1" pageScale="1" pageWidth="827" pageHeight="1169" math="0" shadow="0">
      <root>
        <mxCell id="WIyWlLk6GJQsqaUBKTNV-0" />
        <mxCell id="WIyWlLk6GJQsqaUBKTNV-1" parent="WIyWlLk6GJQsqaUBKTNV-0" />
        <mxCell id="DIgkL6DtAVGHAdRKjhng-122" style="edgeStyle=orthogonalEdgeStyle;rounded=0;orthogonalLoop=1;jettySize=auto;html=1;entryX=0.5;entryY=0;entryDx=0;entryDy=0;" parent="WIyWlLk6GJQsqaUBKTNV-1" source="WIyWlLk6GJQsqaUBKTNV-3" target="WIyWlLk6GJQsqaUBKTNV-6" edge="1">
          <mxGeometry relative="1" as="geometry" />
        </mxCell>
        <mxCell id="WIyWlLk6GJQsqaUBKTNV-3" value="开始" style="rounded=1;whiteSpace=wrap;html=1;fontSize=12;glass=0;strokeWidth=1;shadow=0;" parent="WIyWlLk6GJQsqaUBKTNV-1" vertex="1">
          <mxGeometry x="160" y="80" width="120" height="40" as="geometry" />
        </mxCell>
        <mxCell id="DIgkL6DtAVGHAdRKjhng-118" style="edgeStyle=orthogonalEdgeStyle;rounded=0;orthogonalLoop=1;jettySize=auto;html=1;entryX=0.5;entryY=0;entryDx=0;entryDy=0;" parent="WIyWlLk6GJQsqaUBKTNV-1" source="WIyWlLk6GJQsqaUBKTNV-6" target="WIyWlLk6GJQsqaUBKTNV-10" edge="1">
          <mxGeometry relative="1" as="geometry" />
        </mxCell>
        <mxCell id="DIgkL6DtAVGHAdRKjhng-119" value="Yes" style="edgeLabel;html=1;align=center;verticalAlign=middle;resizable=0;points=[];" parent="DIgkL6DtAVGHAdRKjhng-118" vertex="1" connectable="0">
          <mxGeometry x="-0.0357" relative="1" as="geometry">
            <mxPoint as="offset" />
          </mxGeometry>
        </mxCell>
        <mxCell id="DIgkL6DtAVGHAdRKjhng-120" style="edgeStyle=orthogonalEdgeStyle;rounded=0;orthogonalLoop=1;jettySize=auto;html=1;exitX=1;exitY=0.5;exitDx=0;exitDy=0;" parent="WIyWlLk6GJQsqaUBKTNV-1" source="WIyWlLk6GJQsqaUBKTNV-6" target="WIyWlLk6GJQsqaUBKTNV-7" edge="1">
          <mxGeometry relative="1" as="geometry" />
        </mxCell>
        <mxCell id="DIgkL6DtAVGHAdRKjhng-121" value="No" style="edgeLabel;html=1;align=center;verticalAlign=middle;resizable=0;points=[];" parent="DIgkL6DtAVGHAdRKjhng-120" vertex="1" connectable="0">
          <mxGeometry x="-0.0558" y="1" relative="1" as="geometry">
            <mxPoint as="offset" />
          </mxGeometry>
        </mxCell>
        <mxCell id="WIyWlLk6GJQsqaUBKTNV-6" value="是否有鼠标输入" style="rhombus;whiteSpace=wrap;html=1;shadow=0;fontFamily=Helvetica;fontSize=12;align=center;strokeWidth=1;spacing=6;spacingTop=-4;" parent="WIyWlLk6GJQsqaUBKTNV-1" vertex="1">
          <mxGeometry x="170" y="170" width="100" height="80" as="geometry" />
        </mxCell>
        <mxCell id="WIyWlLk6GJQsqaUBKTNV-7" value="结束" style="rounded=1;whiteSpace=wrap;html=1;fontSize=12;glass=0;strokeWidth=1;shadow=0;" parent="WIyWlLk6GJQsqaUBKTNV-1" vertex="1">
          <mxGeometry x="340" y="190" width="120" height="40" as="geometry" />
        </mxCell>
        <mxCell id="DIgkL6DtAVGHAdRKjhng-116" style="edgeStyle=orthogonalEdgeStyle;rounded=0;orthogonalLoop=1;jettySize=auto;html=1;" parent="WIyWlLk6GJQsqaUBKTNV-1" source="WIyWlLk6GJQsqaUBKTNV-10" target="WIyWlLk6GJQsqaUBKTNV-12" edge="1">
          <mxGeometry relative="1" as="geometry" />
        </mxCell>
        <mxCell id="DIgkL6DtAVGHAdRKjhng-117" value="Yes" style="edgeLabel;html=1;align=center;verticalAlign=middle;resizable=0;points=[];" parent="DIgkL6DtAVGHAdRKjhng-116" vertex="1" connectable="0">
          <mxGeometry x="-0.0395" relative="1" as="geometry">
            <mxPoint as="offset" />
          </mxGeometry>
        </mxCell>
        <mxCell id="WIyWlLk6GJQsqaUBKTNV-10" value="是否在空中" style="rhombus;whiteSpace=wrap;html=1;shadow=0;fontFamily=Helvetica;fontSize=12;align=center;strokeWidth=1;spacing=6;spacingTop=-4;" parent="WIyWlLk6GJQsqaUBKTNV-1" vertex="1">
          <mxGeometry x="170" y="290" width="100" height="80" as="geometry" />
        </mxCell>
        <mxCell id="WIyWlLk6GJQsqaUBKTNV-12" value="【空中攻击】" style="rounded=1;whiteSpace=wrap;html=1;fontSize=12;glass=0;strokeWidth=1;shadow=0;" parent="WIyWlLk6GJQsqaUBKTNV-1" vertex="1">
          <mxGeometry x="340" y="310" width="120" height="40" as="geometry" />
        </mxCell>
        <mxCell id="DIgkL6DtAVGHAdRKjhng-8" style="edgeStyle=orthogonalEdgeStyle;rounded=0;orthogonalLoop=1;jettySize=auto;html=1;exitX=0.5;exitY=1;exitDx=0;exitDy=0;" parent="WIyWlLk6GJQsqaUBKTNV-1" source="WIyWlLk6GJQsqaUBKTNV-10" target="DIgkL6DtAVGHAdRKjhng-3" edge="1">
          <mxGeometry relative="1" as="geometry">
            <mxPoint x="220" y="510" as="sourcePoint" />
          </mxGeometry>
        </mxCell>
        <mxCell id="DIgkL6DtAVGHAdRKjhng-9" value="No" style="edgeLabel;html=1;align=center;verticalAlign=middle;resizable=0;points=[];" parent="DIgkL6DtAVGHAdRKjhng-8" vertex="1" connectable="0">
          <mxGeometry x="-0.3634" y="-2" relative="1" as="geometry">
            <mxPoint as="offset" />
          </mxGeometry>
        </mxCell>
        <mxCell id="DIgkL6DtAVGHAdRKjhng-14" style="edgeStyle=orthogonalEdgeStyle;rounded=0;orthogonalLoop=1;jettySize=auto;html=1;exitX=1;exitY=0.5;exitDx=0;exitDy=0;entryX=0;entryY=0.5;entryDx=0;entryDy=0;" parent="WIyWlLk6GJQsqaUBKTNV-1" source="DIgkL6DtAVGHAdRKjhng-3" target="DIgkL6DtAVGHAdRKjhng-15" edge="1">
          <mxGeometry relative="1" as="geometry">
            <mxPoint x="316.76" y="584.3199999999999" as="targetPoint" />
            <Array as="points" />
          </mxGeometry>
        </mxCell>
        <mxCell id="DIgkL6DtAVGHAdRKjhng-16" value="Yes" style="edgeLabel;html=1;align=center;verticalAlign=middle;resizable=0;points=[];" parent="DIgkL6DtAVGHAdRKjhng-14" vertex="1" connectable="0">
          <mxGeometry x="-0.2743" y="-2" relative="1" as="geometry">
            <mxPoint as="offset" />
          </mxGeometry>
        </mxCell>
        <mxCell id="DIgkL6DtAVGHAdRKjhng-18" style="edgeStyle=orthogonalEdgeStyle;rounded=0;orthogonalLoop=1;jettySize=auto;html=1;entryX=0.5;entryY=0;entryDx=0;entryDy=0;" parent="WIyWlLk6GJQsqaUBKTNV-1" source="DIgkL6DtAVGHAdRKjhng-3" target="DIgkL6DtAVGHAdRKjhng-30" edge="1">
          <mxGeometry relative="1" as="geometry">
            <mxPoint x="220" y="660" as="targetPoint" />
          </mxGeometry>
        </mxCell>
        <mxCell id="DIgkL6DtAVGHAdRKjhng-19" value="No" style="edgeLabel;html=1;align=center;verticalAlign=middle;resizable=0;points=[];" parent="DIgkL6DtAVGHAdRKjhng-18" vertex="1" connectable="0">
          <mxGeometry x="-0.2405" relative="1" as="geometry">
            <mxPoint as="offset" />
          </mxGeometry>
        </mxCell>
        <mxCell id="DIgkL6DtAVGHAdRKjhng-3" value="是否处于不可攻击状态" style="rhombus;whiteSpace=wrap;html=1;shadow=0;fontFamily=Helvetica;fontSize=12;align=center;strokeWidth=1;spacing=6;spacingTop=-4;" parent="WIyWlLk6GJQsqaUBKTNV-1" vertex="1">
          <mxGeometry x="170" y="545" width="100" height="75" as="geometry" />
        </mxCell>
        <mxCell id="DIgkL6DtAVGHAdRKjhng-15" value="结束" style="rounded=1;whiteSpace=wrap;html=1;fontSize=12;glass=0;strokeWidth=1;shadow=0;" parent="WIyWlLk6GJQsqaUBKTNV-1" vertex="1">
          <mxGeometry x="340" y="562.5" width="120" height="40" as="geometry" />
        </mxCell>
        <mxCell id="DIgkL6DtAVGHAdRKjhng-21" value="&lt;h1&gt;近战攻击&lt;/h1&gt;&lt;div&gt;Melee Attack&lt;/div&gt;" style="text;html=1;strokeColor=none;fillColor=none;spacing=5;spacingTop=-20;whiteSpace=wrap;overflow=hidden;rounded=0;" parent="WIyWlLk6GJQsqaUBKTNV-1" vertex="1">
          <mxGeometry x="-60" y="70" width="190" height="120" as="geometry" />
        </mxCell>
        <mxCell id="DIgkL6DtAVGHAdRKjhng-126" style="edgeStyle=orthogonalEdgeStyle;rounded=0;orthogonalLoop=1;jettySize=auto;html=1;entryX=0.5;entryY=0;entryDx=0;entryDy=0;" parent="WIyWlLk6GJQsqaUBKTNV-1" source="DIgkL6DtAVGHAdRKjhng-25" target="DIgkL6DtAVGHAdRKjhng-28" edge="1">
          <mxGeometry relative="1" as="geometry" />
        </mxCell>
        <mxCell id="DIgkL6DtAVGHAdRKjhng-25" value="设置为近战攻击状态" style="rounded=0;whiteSpace=wrap;html=1;" parent="WIyWlLk6GJQsqaUBKTNV-1" vertex="1">
          <mxGeometry x="330" y="750" width="120" height="60" as="geometry" />
        </mxCell>
        <mxCell id="DIgkL6DtAVGHAdRKjhng-27" value="&lt;h1 style=&quot;font-size: 10px;&quot;&gt;这里的Key，用来做连招，如左键1，左键2，左键3进行输入时，左键3做为重击，设置Key为HeavyAttack&lt;/h1&gt;" style="text;html=1;strokeColor=none;fillColor=none;spacing=5;spacingTop=-20;whiteSpace=wrap;overflow=hidden;rounded=0;fontSize=10;" parent="WIyWlLk6GJQsqaUBKTNV-1" vertex="1">
          <mxGeometry x="480" y="830" width="230" height="40" as="geometry" />
        </mxCell>
        <mxCell id="DIgkL6DtAVGHAdRKjhng-127" style="edgeStyle=orthogonalEdgeStyle;rounded=0;orthogonalLoop=1;jettySize=auto;html=1;entryX=0.5;entryY=0;entryDx=0;entryDy=0;" parent="WIyWlLk6GJQsqaUBKTNV-1" source="DIgkL6DtAVGHAdRKjhng-28" target="DIgkL6DtAVGHAdRKjhng-38" edge="1">
          <mxGeometry relative="1" as="geometry" />
        </mxCell>
        <mxCell id="DIgkL6DtAVGHAdRKjhng-28" value="连击Key的启动" style="rounded=0;whiteSpace=wrap;html=1;" parent="WIyWlLk6GJQsqaUBKTNV-1" vertex="1">
          <mxGeometry x="330" y="830" width="120" height="60" as="geometry" />
        </mxCell>
        <mxCell id="DIgkL6DtAVGHAdRKjhng-124" style="edgeStyle=orthogonalEdgeStyle;rounded=0;orthogonalLoop=1;jettySize=auto;html=1;entryX=0.5;entryY=0;entryDx=0;entryDy=0;" parent="WIyWlLk6GJQsqaUBKTNV-1" source="DIgkL6DtAVGHAdRKjhng-30" target="DIgkL6DtAVGHAdRKjhng-25" edge="1">
          <mxGeometry relative="1" as="geometry" />
        </mxCell>
        <mxCell id="DIgkL6DtAVGHAdRKjhng-125" value="Yes" style="edgeLabel;html=1;align=center;verticalAlign=middle;resizable=0;points=[];" parent="DIgkL6DtAVGHAdRKjhng-124" vertex="1" connectable="0">
          <mxGeometry x="-0.3719" relative="1" as="geometry">
            <mxPoint as="offset" />
          </mxGeometry>
        </mxCell>
        <mxCell id="DIgkL6DtAVGHAdRKjhng-157" style="edgeStyle=orthogonalEdgeStyle;rounded=0;orthogonalLoop=1;jettySize=auto;html=1;entryX=0.5;entryY=0;entryDx=0;entryDy=0;" parent="WIyWlLk6GJQsqaUBKTNV-1" source="DIgkL6DtAVGHAdRKjhng-30" target="DIgkL6DtAVGHAdRKjhng-52" edge="1">
          <mxGeometry relative="1" as="geometry" />
        </mxCell>
        <mxCell id="DIgkL6DtAVGHAdRKjhng-30" value="判断是否是近战武器" style="rhombus;whiteSpace=wrap;html=1;shadow=0;fontFamily=Helvetica;fontSize=12;align=center;strokeWidth=1;spacing=6;spacingTop=-4;" parent="WIyWlLk6GJQsqaUBKTNV-1" vertex="1">
          <mxGeometry x="170" y="690" width="100" height="80" as="geometry" />
        </mxCell>
        <mxCell id="DIgkL6DtAVGHAdRKjhng-38" value="禁止切换武器在近战的时候" style="rounded=0;whiteSpace=wrap;html=1;" parent="WIyWlLk6GJQsqaUBKTNV-1" vertex="1">
          <mxGeometry x="330" y="910" width="120" height="60" as="geometry" />
        </mxCell>
        <mxCell id="DIgkL6DtAVGHAdRKjhng-48" value="No&lt;br&gt;" style="edgeStyle=orthogonalEdgeStyle;rounded=0;orthogonalLoop=1;jettySize=auto;html=1;entryX=0;entryY=0.5;entryDx=0;entryDy=0;exitX=1;exitY=0.5;exitDx=0;exitDy=0;" parent="WIyWlLk6GJQsqaUBKTNV-1" source="DIgkL6DtAVGHAdRKjhng-151" target="DIgkL6DtAVGHAdRKjhng-49" edge="1">
          <mxGeometry relative="1" as="geometry">
            <mxPoint x="360" y="1143" as="targetPoint" />
            <mxPoint x="269.9642857142858" y="1550.0285714285715" as="sourcePoint" />
          </mxGeometry>
        </mxCell>
        <mxCell id="DIgkL6DtAVGHAdRKjhng-41" value="&lt;h1 style=&quot;font-size: 10px;&quot;&gt;假设有两个敌人AB在攻击范围内，其中A进入处决阶段，优先进行处决,把Player和A都进入处决事件&lt;/h1&gt;" style="text;html=1;strokeColor=none;fillColor=none;spacing=5;spacingTop=-20;whiteSpace=wrap;overflow=hidden;rounded=0;fontSize=10;" parent="WIyWlLk6GJQsqaUBKTNV-1" vertex="1">
          <mxGeometry x="720" y="1340" width="230" height="40" as="geometry" />
        </mxCell>
        <mxCell id="DIgkL6DtAVGHAdRKjhng-49" value="进入处决事件" style="rounded=1;whiteSpace=wrap;html=1;fontSize=12;glass=0;strokeWidth=1;shadow=0;" parent="WIyWlLk6GJQsqaUBKTNV-1" vertex="1">
          <mxGeometry x="570" y="1340" width="120" height="40" as="geometry" />
        </mxCell>
        <mxCell id="DIgkL6DtAVGHAdRKjhng-61" style="edgeStyle=orthogonalEdgeStyle;rounded=0;orthogonalLoop=1;jettySize=auto;html=1;labelBorderColor=none;entryX=0;entryY=0.5;entryDx=0;entryDy=0;" parent="WIyWlLk6GJQsqaUBKTNV-1" source="DIgkL6DtAVGHAdRKjhng-59" target="DIgkL6DtAVGHAdRKjhng-63" edge="1">
          <mxGeometry relative="1" as="geometry">
            <mxPoint x="340" y="1419" as="targetPoint" />
          </mxGeometry>
        </mxCell>
        <mxCell id="DIgkL6DtAVGHAdRKjhng-62" value="Yes" style="edgeLabel;html=1;align=center;verticalAlign=middle;resizable=0;points=[];labelBorderColor=none;" parent="DIgkL6DtAVGHAdRKjhng-61" vertex="1" connectable="0">
          <mxGeometry x="-0.1749" y="2" relative="1" as="geometry">
            <mxPoint as="offset" />
          </mxGeometry>
        </mxCell>
        <mxCell id="DIgkL6DtAVGHAdRKjhng-64" style="edgeStyle=orthogonalEdgeStyle;rounded=0;orthogonalLoop=1;jettySize=auto;html=1;exitX=0.5;exitY=1;exitDx=0;exitDy=0;entryX=0.5;entryY=0;entryDx=0;entryDy=0;" parent="WIyWlLk6GJQsqaUBKTNV-1" source="DIgkL6DtAVGHAdRKjhng-151" target="DIgkL6DtAVGHAdRKjhng-135" edge="1">
          <mxGeometry relative="1" as="geometry">
            <mxPoint x="220" y="1633" as="targetPoint" />
            <mxPoint x="220" y="1590" as="sourcePoint" />
          </mxGeometry>
        </mxCell>
        <mxCell id="DIgkL6DtAVGHAdRKjhng-163" value="Yes" style="edgeLabel;html=1;align=center;verticalAlign=middle;resizable=0;points=[];" parent="DIgkL6DtAVGHAdRKjhng-64" vertex="1" connectable="0">
          <mxGeometry x="-0.0379" y="-3" relative="1" as="geometry">
            <mxPoint as="offset" />
          </mxGeometry>
        </mxCell>
        <mxCell id="DIgkL6DtAVGHAdRKjhng-159" style="edgeStyle=orthogonalEdgeStyle;rounded=0;orthogonalLoop=1;jettySize=auto;html=1;entryX=0.5;entryY=0;entryDx=0;entryDy=0;" parent="WIyWlLk6GJQsqaUBKTNV-1" source="DIgkL6DtAVGHAdRKjhng-59" target="DIgkL6DtAVGHAdRKjhng-151" edge="1">
          <mxGeometry relative="1" as="geometry">
            <mxPoint x="220" y="1210" as="targetPoint" />
          </mxGeometry>
        </mxCell>
        <mxCell id="DIgkL6DtAVGHAdRKjhng-160" value="No" style="edgeLabel;html=1;align=center;verticalAlign=middle;resizable=0;points=[];" parent="DIgkL6DtAVGHAdRKjhng-159" vertex="1" connectable="0">
          <mxGeometry x="-0.2548" relative="1" as="geometry">
            <mxPoint as="offset" />
          </mxGeometry>
        </mxCell>
        <mxCell id="DIgkL6DtAVGHAdRKjhng-59" value="判断是否有障碍物" style="rhombus;whiteSpace=wrap;html=1;shadow=0;fontFamily=Helvetica;fontSize=12;align=center;strokeWidth=1;spacing=6;spacingTop=-4;labelBorderColor=none;" parent="WIyWlLk6GJQsqaUBKTNV-1" vertex="1">
          <mxGeometry x="170" y="1089" width="100" height="81" as="geometry" />
        </mxCell>
        <mxCell id="DIgkL6DtAVGHAdRKjhng-63" value="停止攻击&lt;br&gt;并结束" style="rounded=1;whiteSpace=wrap;html=1;fontSize=12;glass=0;strokeWidth=1;shadow=0;labelBorderColor=none;" parent="WIyWlLk6GJQsqaUBKTNV-1" vertex="1">
          <mxGeometry x="570" y="1109.5" width="120" height="40" as="geometry" />
        </mxCell>
        <mxCell id="DIgkL6DtAVGHAdRKjhng-123" value="不能在近战攻击过程中，切换其他武器" style="text;html=1;strokeColor=none;fillColor=none;align=center;verticalAlign=middle;whiteSpace=wrap;rounded=0;" parent="WIyWlLk6GJQsqaUBKTNV-1" vertex="1">
          <mxGeometry x="480" y="910" width="230" height="60" as="geometry" />
        </mxCell>
        <mxCell id="DIgkL6DtAVGHAdRKjhng-131" value="" style="edgeStyle=orthogonalEdgeStyle;rounded=0;orthogonalLoop=1;jettySize=auto;html=1;entryX=0.5;entryY=0;entryDx=0;entryDy=0;" parent="WIyWlLk6GJQsqaUBKTNV-1" source="DIgkL6DtAVGHAdRKjhng-38" target="DIgkL6DtAVGHAdRKjhng-52" edge="1">
          <mxGeometry relative="1" as="geometry">
            <mxPoint x="390" y="970" as="sourcePoint" />
            <mxPoint x="220" y="1180" as="targetPoint" />
            <Array as="points">
              <mxPoint x="390" y="980" />
            </Array>
          </mxGeometry>
        </mxCell>
        <mxCell id="DIgkL6DtAVGHAdRKjhng-134" value="" style="edgeStyle=orthogonalEdgeStyle;rounded=0;orthogonalLoop=1;jettySize=auto;html=1;" parent="WIyWlLk6GJQsqaUBKTNV-1" target="DIgkL6DtAVGHAdRKjhng-59" edge="1">
          <mxGeometry relative="1" as="geometry">
            <mxPoint x="220" y="1039" as="sourcePoint" />
          </mxGeometry>
        </mxCell>
        <mxCell id="DIgkL6DtAVGHAdRKjhng-52" value="武器攻击碰撞检测范围，Player和Enemy" style="rounded=0;whiteSpace=wrap;html=1;labelBorderColor=none;" parent="WIyWlLk6GJQsqaUBKTNV-1" vertex="1">
          <mxGeometry x="160" y="1010" width="120" height="60" as="geometry" />
        </mxCell>
        <mxCell id="gMsDyKD1PHjhqlxNqjui-1" style="edgeStyle=orthogonalEdgeStyle;rounded=0;orthogonalLoop=1;jettySize=auto;html=1;entryX=0.5;entryY=0;entryDx=0;entryDy=0;" parent="WIyWlLk6GJQsqaUBKTNV-1" source="DIgkL6DtAVGHAdRKjhng-135" target="gMsDyKD1PHjhqlxNqjui-0" edge="1">
          <mxGeometry relative="1" as="geometry" />
        </mxCell>
        <mxCell id="DIgkL6DtAVGHAdRKjhng-135" value="查找Table，执行攻击动画AttackStart" style="rounded=0;whiteSpace=wrap;html=1;" parent="WIyWlLk6GJQsqaUBKTNV-1" vertex="1">
          <mxGeometry x="160" y="1637" width="120" height="60" as="geometry" />
        </mxCell>
        <mxCell id="zpoVEwI_XJeYf_uSFftx-13" style="edgeStyle=orthogonalEdgeStyle;rounded=0;orthogonalLoop=1;jettySize=auto;html=1;entryX=0;entryY=0.5;entryDx=0;entryDy=0;" parent="WIyWlLk6GJQsqaUBKTNV-1" source="DIgkL6DtAVGHAdRKjhng-141" target="gMsDyKD1PHjhqlxNqjui-8" edge="1">
          <mxGeometry relative="1" as="geometry" />
        </mxCell>
        <mxCell id="DIgkL6DtAVGHAdRKjhng-141" value="动画通知Hurt End，发出攻击" style="rounded=0;whiteSpace=wrap;html=1;" parent="WIyWlLk6GJQsqaUBKTNV-1" vertex="1">
          <mxGeometry x="160" y="1980" width="120" height="60" as="geometry" />
        </mxCell>
        <mxCell id="DIgkL6DtAVGHAdRKjhng-151" value="判断敌人是否有韧值" style="rhombus;whiteSpace=wrap;html=1;shadow=0;fontFamily=Helvetica;fontSize=12;align=center;strokeWidth=1;spacing=6;spacingTop=-4;" parent="WIyWlLk6GJQsqaUBKTNV-1" vertex="1">
          <mxGeometry x="170" y="1320" width="100" height="80" as="geometry" />
        </mxCell>
        <mxCell id="gMsDyKD1PHjhqlxNqjui-3" style="edgeStyle=orthogonalEdgeStyle;rounded=0;orthogonalLoop=1;jettySize=auto;html=1;" parent="WIyWlLk6GJQsqaUBKTNV-1" source="gMsDyKD1PHjhqlxNqjui-0" target="DIgkL6DtAVGHAdRKjhng-141" edge="1">
          <mxGeometry relative="1" as="geometry" />
        </mxCell>
        <mxCell id="gMsDyKD1PHjhqlxNqjui-4" value="No" style="edgeLabel;html=1;align=center;verticalAlign=middle;resizable=0;points=[];" parent="gMsDyKD1PHjhqlxNqjui-3" vertex="1" connectable="0">
          <mxGeometry x="-0.1757" relative="1" as="geometry">
            <mxPoint as="offset" />
          </mxGeometry>
        </mxCell>
        <mxCell id="gMsDyKD1PHjhqlxNqjui-6" style="edgeStyle=orthogonalEdgeStyle;rounded=0;orthogonalLoop=1;jettySize=auto;html=1;" parent="WIyWlLk6GJQsqaUBKTNV-1" source="gMsDyKD1PHjhqlxNqjui-0" target="gMsDyKD1PHjhqlxNqjui-8" edge="1">
          <mxGeometry relative="1" as="geometry">
            <mxPoint x="440" y="1820" as="targetPoint" />
          </mxGeometry>
        </mxCell>
        <mxCell id="gMsDyKD1PHjhqlxNqjui-7" value="Yes" style="edgeLabel;html=1;align=center;verticalAlign=middle;resizable=0;points=[];" parent="gMsDyKD1PHjhqlxNqjui-6" vertex="1" connectable="0">
          <mxGeometry x="0.1158" y="-3" relative="1" as="geometry">
            <mxPoint as="offset" />
          </mxGeometry>
        </mxCell>
        <mxCell id="gMsDyKD1PHjhqlxNqjui-0" value="攻击过程预备阶段中是否受到打断" style="rhombus;whiteSpace=wrap;html=1;shadow=0;fontFamily=Helvetica;fontSize=12;align=center;strokeWidth=1;spacing=6;spacingTop=-4;" parent="WIyWlLk6GJQsqaUBKTNV-1" vertex="1">
          <mxGeometry x="170" y="1780" width="100" height="80" as="geometry" />
        </mxCell>
        <mxCell id="gMsDyKD1PHjhqlxNqjui-10" style="edgeStyle=orthogonalEdgeStyle;rounded=0;orthogonalLoop=1;jettySize=auto;html=1;entryX=0.5;entryY=0;entryDx=0;entryDy=0;" parent="WIyWlLk6GJQsqaUBKTNV-1" source="gMsDyKD1PHjhqlxNqjui-8" target="gMsDyKD1PHjhqlxNqjui-9" edge="1">
          <mxGeometry relative="1" as="geometry">
            <Array as="points">
              <mxPoint x="500" y="1970" />
            </Array>
          </mxGeometry>
        </mxCell>
        <mxCell id="gMsDyKD1PHjhqlxNqjui-8" value="攻击动画End，状态恢复成默认状态，清除TimerLine，更新Key为LightAttack" style="rounded=0;whiteSpace=wrap;html=1;" parent="WIyWlLk6GJQsqaUBKTNV-1" vertex="1">
          <mxGeometry x="440" y="1980" width="120" height="60" as="geometry" />
        </mxCell>
        <mxCell id="gMsDyKD1PHjhqlxNqjui-9" value="结束" style="rounded=1;whiteSpace=wrap;html=1;fontSize=12;glass=0;strokeWidth=1;shadow=0;" parent="WIyWlLk6GJQsqaUBKTNV-1" vertex="1">
          <mxGeometry x="440" y="2210" width="120" height="40" as="geometry" />
        </mxCell>
        <mxCell id="zpoVEwI_XJeYf_uSFftx-1" value="MeleeAttackAction()" style="text;html=1;strokeColor=none;fillColor=none;align=center;verticalAlign=middle;whiteSpace=wrap;rounded=0;" parent="WIyWlLk6GJQsqaUBKTNV-1" vertex="1">
          <mxGeometry x="610" y="80" width="220" height="30" as="geometry" />
        </mxCell>
        <mxCell id="zpoVEwI_XJeYf_uSFftx-2" value="动画通知Hurt Start" style="text;html=1;align=center;verticalAlign=middle;resizable=0;points=[];autosize=1;strokeColor=none;fillColor=none;" parent="WIyWlLk6GJQsqaUBKTNV-1" vertex="1">
          <mxGeometry y="1965" width="120" height="30" as="geometry" />
        </mxCell>
        <mxCell id="zpoVEwI_XJeYf_uSFftx-3" value="动画通知Hurt End,&lt;br&gt;调用伤害回调函数" style="text;html=1;align=center;verticalAlign=middle;resizable=0;points=[];autosize=1;strokeColor=none;fillColor=none;" parent="WIyWlLk6GJQsqaUBKTNV-1" vertex="1">
          <mxGeometry y="2000" width="120" height="40" as="geometry" />
        </mxCell>
        <mxCell id="zpoVEwI_XJeYf_uSFftx-6" value="动画开始 Play Attack Anim Start()" style="text;html=1;align=center;verticalAlign=middle;resizable=0;points=[];autosize=1;strokeColor=none;fillColor=none;" parent="WIyWlLk6GJQsqaUBKTNV-1" vertex="1">
          <mxGeometry x="-45" y="1652" width="200" height="30" as="geometry" />
        </mxCell>
        <mxCell id="zpoVEwI_XJeYf_uSFftx-7" value="CheckAttackState()" style="text;html=1;align=center;verticalAlign=middle;resizable=0;points=[];autosize=1;strokeColor=none;fillColor=none;" parent="WIyWlLk6GJQsqaUBKTNV-1" vertex="1">
          <mxGeometry x="20" y="315" width="130" height="30" as="geometry" />
        </mxCell>
        <mxCell id="zpoVEwI_XJeYf_uSFftx-8" value="SetCombatType()" style="text;html=1;align=center;verticalAlign=middle;resizable=0;points=[];autosize=1;strokeColor=none;fillColor=none;" parent="WIyWlLk6GJQsqaUBKTNV-1" vertex="1">
          <mxGeometry x="490" y="765" width="120" height="30" as="geometry" />
        </mxCell>
        <mxCell id="zpoVEwI_XJeYf_uSFftx-9" value="AttackStart()" style="text;html=1;align=center;verticalAlign=middle;resizable=0;points=[];autosize=1;strokeColor=none;fillColor=none;" parent="WIyWlLk6GJQsqaUBKTNV-1" vertex="1">
          <mxGeometry x="505" y="710" width="90" height="30" as="geometry" />
        </mxCell>
        <mxCell id="zpoVEwI_XJeYf_uSFftx-11" value="动画结束 Play Attack Anim End()" style="text;html=1;align=center;verticalAlign=middle;resizable=0;points=[];autosize=1;strokeColor=none;fillColor=none;" parent="WIyWlLk6GJQsqaUBKTNV-1" vertex="1">
          <mxGeometry x="440" y="1754" width="200" height="30" as="geometry" />
        </mxCell>
      </root>
    </mxGraphModel>
  </diagram>
</mxfile>
